<svg xmlns="http://www.w3.org/2000/svg" width="128" height="128" viewBox="0 0 128 128">
  <!-- Background -->
  <rect width="128" height="128" rx="20" fill="#A43A2F"/>
  
  <!-- Fuel Pump Body -->
  <rect x="35" y="35" width="40" height="55" rx="4" fill="white"/>
  
  <!-- Pump Screen -->
  <rect x="42" y="42" width="26" height="15" rx="2" fill="#A43A2F"/>
  
  <!-- Pump Handle Base -->
  <rect x="75" y="40" width="8" height="25" rx="2" fill="white"/>
  
  <!-- Pump Hose -->
  <path d="M79 65 Q79 80, 90 80 Q100 80, 100 70 L100 55" 
        stroke="white" stroke-width="6" fill="none" stroke-linecap="round"/>
  
  <!-- Nozzle -->
  <rect x="97" y="45" width="10" height="8" rx="2" fill="white"/>
  <rect x="103" y="40" width="4" height="12" rx="1" fill="white"/>
  
  <!-- Drop icon -->
  <path d="M54 95 Q54 88, 48 82 Q42 88, 42 95 Q42 100, 48 100 Q54 100, 54 95 Z" 
        fill="white"/>
        
  <!-- Pump details -->
  <line x1="42" y1="65" x2="68" y2="65" stroke="white" stroke-width="2"/>
  <line x1="42" y1="72" x2="68" y2="72" stroke="white" stroke-width="2"/>
  <line x1="42" y1="79" x2="55" y2="79" stroke="white" stroke-width="2"/>
</svg>
